<svg xmlns="http://www.w3.org/2000/svg" width="320" height="1024" viewBox="0 0 320 1024">
  <g fill="none" fill-rule="evenodd" transform="translate(-4 -106)">
    <rect width="328" height="322" y="915" fill="#563F3F" fill-opacity=".8" stroke="#C27676" rx="21"/>
    <rect width="327" height="321" y="459" fill="#563F3F" fill-opacity=".8" stroke="#C27676" rx="21"/>
    <rect width="326" height="320" fill="#563F3F" fill-opacity=".8" stroke="#C27676" rx="21"/>
    <text fill="#4A4A4A" font-family="AvenirNext-Medium, Avenir Next" font-size="23" font-weight="400">
      <tspan x="56" y="1019">Image Card 3 (Load)</tspan>
    </text>
    <text fill="#4A4A4A" font-family="AvenirNext-Medium, Avenir Next" font-size="23" font-weight="400">
      <tspan x="56" y="624">Image Card 2 (Load)</tspan>
    </text>
    <text fill="#4A4A4A" font-family="AvenirNext-Medium, Avenir Next" font-size="23" font-weight="400">
      <tspan x="56" y="235">Image Card 1 (Load)</tspan>
    </text>
    <g transform="translate(119 125)">
      <g transform="translate(0 908)">
        <circle cx="39" cy="39" r="39" fill="#340B0B" opacity=".668"/>
        <polygon fill="#000" fill-opacity=".377" points="38.5 26 56 57 21 57" opacity=".824" transform="matrix(1 0 0 -1 0 83)"/>
      </g>
      <g transform="matrix(1 0 0 -1 3 78)">
        <circle cx="39" cy="39" r="39" fill="#340B0B" opacity=".668"/>
        <polygon fill="#000" fill-opacity=".377" points="38.5 26 56 57 21 57" opacity=".824" transform="matrix(1 0 0 -1 0 83)"/>
      </g>
    </g>
  </g>
</svg>
